<?xml version="1.0" encoding="UTF-8" standalone="no"?>
<!-- Created with Inkscape (http://www.inkscape.org/) -->

<svg
   xmlns:dc="http://purl.org/dc/elements/1.1/"
   xmlns:cc="http://creativecommons.org/ns#"
   xmlns:rdf="http://www.w3.org/1999/02/22-rdf-syntax-ns#"
   xmlns:svg="http://www.w3.org/2000/svg"
   xmlns="http://www.w3.org/2000/svg"
   xmlns:sodipodi="http://sodipodi.sourceforge.net/DTD/sodipodi-0.dtd"
   xmlns:inkscape="http://www.inkscape.org/namespaces/inkscape"
   width="179.2"
   height="102.4"
   id="svg2"
   version="1.1"
   inkscape:version="0.92.1 r"
   sodipodi:docname="sprites.svg"
   inkscape:export-filename="C:\Users\Dave\My Projects\mapper\images\sprites.png"
   inkscape:export-xdpi="90"
   inkscape:export-ydpi="90">
  <defs
     id="defs4" />
  <sodipodi:namedview
     id="base"
     pagecolor="#aa6e33"
     bordercolor="#666666"
     borderopacity="1.0"
     inkscape:pageopacity="1"
     inkscape:pageshadow="2"
     inkscape:zoom="3.139554"
     inkscape:cx="111.24776"
     inkscape:cy="62.37957"
     inkscape:document-units="px"
     inkscape:current-layer="layer1"
     showgrid="true"
     inkscape:window-width="1366"
     inkscape:window-height="683"
     inkscape:window-x="0"
     inkscape:window-y="22"
     inkscape:window-maximized="1">
    <inkscape:grid
       empspacing="2"
       visible="true"
       enabled="true"
       snapvisiblegridlinesonly="true"
       spacingx="25.6"
       spacingy="25.6"
       type="xygrid"
       id="grid2985"
       color="#432b14"
       opacity="0.25098039"
       empcolor="#432b14"
       empopacity="0.50196078"
       originx="0"
       originy="0" />
    <inkscape:grid
       type="xygrid"
       id="grid2987"
       empspacing="4"
       visible="true"
       enabled="true"
       snapvisiblegridlinesonly="true"
       color="#432b14"
       opacity="0.1254902"
       empcolor="#432b14"
       empopacity="0.25098039"
       spacingx="1.0666667"
       originx="0"
       originy="0"
       spacingy="1.0666667" />
  </sodipodi:namedview>
  <metadata
     id="metadata7">
    <rdf:RDF>
      <cc:Work
         rdf:about="">
        <dc:format>image/svg+xml</dc:format>
        <dc:type
           rdf:resource="http://purl.org/dc/dcmitype/StillImage" />
        <dc:title />
      </cc:Work>
    </rdf:RDF>
  </metadata>
  <g
     inkscape:label="Layer 1"
     inkscape:groupmode="layer"
     id="layer1"
     transform="translate(0,-1020.1197)">
    <path
       style="color:#000000;display:inline;overflow:visible;visibility:visible;opacity:1;fill:#ffffff;fill-opacity:1;stroke:none;stroke-width:2.68799996;marker:none;enable-background:accumulate"
       d="m 13.866667,1025.453 v 2.1333 c -3.534622,0 -6.4000003,2.8654 -6.4000003,6.4 H 5.3333333 v 6.4 h 6.3999997 v -2.1333 c 3.534622,0 6.4,-2.8654 6.4,-6.4 h 2.133334 v -6.4 z m 0,3.2 v 3.2 h 3.2 c 0,2.9455 -2.387815,5.3333 -5.333334,5.3333 v -3.2 H 8.5333333 c 0,-2.9455 2.3878147,-5.3333 5.3333337,-5.3333 z"
       id="rect4142"
       inkscape:connector-curvature="0" />
    <path
       style="color:#000000;display:inline;overflow:visible;visibility:visible;opacity:1;fill:#ffffff;fill-opacity:1;fill-rule:nonzero;stroke:none;stroke-width:2.68799996;marker:none;enable-background:accumulate"
       d="m 38.4,1028.653 v 1.0667 h 3.2 v 3.2 h 1.066667 v -3.2 -1.0667 H 41.6 Z m -4.266667,2.1333 v 6.4 h 6.4 v -6.4 z M 35.2,1031.853 h 4.266667 v 4.2667 H 35.2 Z"
       id="rect4994"
       inkscape:connector-curvature="0" />
    <path
       style="color:#000000;display:inline;overflow:visible;visibility:visible;opacity:1;fill:#ffffff;fill-opacity:1;fill-rule:nonzero;stroke:none;stroke-width:2.68799996;marker:none;enable-background:accumulate"
       d="m 30.933333,1102.253 v 2.1333 l 5.333334,5.3334 -5.333334,5.3333 v 2.1333 h 2.133334 L 38.4,1111.853 l 5.333333,5.3333 h 2.133334 v -2.1333 l -5.333334,-5.3333 5.333334,-5.3334 v -2.1333 H 43.733333 L 38.4,1107.5863 33.066667,1102.253 Z"
       id="path5186"
       inkscape:connector-curvature="0"
       sodipodi:nodetypes="ccccccccccccccccc" />
    <path
       style="color:#000000;display:inline;overflow:visible;visibility:visible;opacity:1;fill:#ffffff;fill-opacity:1;fill-rule:nonzero;stroke:none;stroke-width:2.68799996;marker:none;enable-background:accumulate"
       d="m 13.866667,1104.3863 v 4.2667 H 6.4 v 2.1333 h 7.466667 v 4.2667 L 19.2,1109.7197 Z"
       id="path5245"
       inkscape:connector-curvature="0"
       sodipodi:nodetypes="cccccccc" />
    <path
       style="color:#000000;display:inline;overflow:visible;visibility:visible;fill:#ffffff;fill-opacity:1;fill-rule:nonzero;stroke:none;stroke-width:2.68799996;marker:none;enable-background:accumulate"
       d="m 71.466667,1028.653 -6.4,3.2 -1.066667,8.5333 7.466667,-3.2 z"
       id="path5272"
       inkscape:connector-curvature="0"
       sodipodi:nodetypes="ccccc" />
    <path
       style="color:#000000;display:inline;overflow:visible;visibility:visible;fill:#ffffff;fill-opacity:1;fill-rule:nonzero;stroke:none;stroke-width:2.68799996;marker:none;enable-background:accumulate"
       d="m 56.533333,1028.653 7.466667,-3.2 7.466667,3.2 L 64,1030.7863 Z"
       id="path5291"
       inkscape:connector-curvature="0"
       sodipodi:nodetypes="ccccc" />
    <path
       style="color:#000000;display:inline;overflow:visible;visibility:visible;fill:#ffffff;fill-opacity:1;fill-rule:nonzero;stroke:none;stroke-width:2.68799996;marker:none;enable-background:accumulate"
       d="m 56.533333,1037.1863 v -8.5333 l 6.4,3.2 L 64,1040.3863 Z"
       id="path5270"
       inkscape:connector-curvature="0"
       sodipodi:nodetypes="ccccc" />
    <path
       style="color:#000000;display:inline;overflow:visible;visibility:visible;opacity:1;fill:#ffffff;fill-opacity:1;fill-rule:nonzero;stroke:none;stroke-width:2.68799996;marker:none;enable-background:accumulate"
       d="m 56.533333,1051.053 v 14.9333 h 14.933334 v -14.9333 z m 2.133334,2.1333 h 10.666666 v 10.6667 H 58.666667 Z"
       id="rect5536"
       inkscape:connector-curvature="0"
       sodipodi:nodetypes="cccccccccc" />
    <path
       style="color:#000000;display:inline;overflow:visible;visibility:visible;opacity:1;fill:#ffffff;fill-opacity:1;fill-rule:nonzero;stroke:none;stroke-width:2.68799996;marker:none;enable-background:accumulate"
       d="m 82.133333,1051.053 v 14.9333 h 14.933334 v -14.9333 z m 2.133334,2.1333 h 4.266666 v 4.2667 h -4.266666 z m 6.4,0 h 4.266666 v 4.2667 h -4.266666 z m -6.4,6.4 h 4.266666 v 4.2667 h -4.266666 z m 6.4,0 h 4.266666 v 4.2667 h -4.266666 z"
       id="rect5536-7"
       inkscape:connector-curvature="0"
       sodipodi:nodetypes="ccccccccccccccccccccccccc" />
    <path
       style="color:#000000;display:inline;overflow:visible;visibility:visible;opacity:1;fill:#ffffff;fill-opacity:1;fill-rule:nonzero;stroke:none;stroke-width:2.68799996;marker:none;enable-background:accumulate"
       d="m 83.2,1076.653 v 14.9333 H 96 v -11.7333 l -3.2,-3.2 z m 1.066667,5.3333 h 10.666666 v 8.5334 H 84.266667 Z"
       id="path5688"
       inkscape:connector-curvature="0" />
    <path
       style="color:#000000;display:inline;overflow:visible;visibility:visible;fill:#ffffff;fill-opacity:1;fill-rule:nonzero;stroke:none;stroke-width:2.68799996;marker:none;enable-background:accumulate"
       d="m 85.333597,1089.453 h 8.53307 c 0,0 -0.419178,-3.0833 -1.115724,-3.2 -1.563958,-0.2622 -1.02815,1.5566 -1.989981,1.1285 -0.96183,-0.428 -0.132697,-3.1521 -1.757829,-3.2299 -1.625158,-0.078 -2.421148,2.724 -2.421148,3.4245 0,0.7005 -1.269618,-1.0944 -1.248388,1.8769 z"
       id="path5752"
       inkscape:connector-curvature="0"
       sodipodi:nodetypes="ccssssc" />
    <path
       inkscape:connector-curvature="0"
       style="color:#000000;display:inline;overflow:visible;visibility:visible;opacity:1;fill:#ffffff;fill-opacity:1;fill-rule:nonzero;stroke:none;stroke-width:2.68799996;marker:none;enable-background:accumulate"
       d="m 30.933333,1051.053 v 2.1333 h 2.133334 v -2.1333 z m 4.266667,0 v 2.1333 h 6.4 v -2.1333 z m 8.533333,0 v 2.1333 h 2.133334 v -2.1333 z m -12.8,4.2667 v 6.4 h 2.133334 v -6.4 z m 4.266667,0 v 6.4 h 6.4 v -6.4 z m 8.533333,0 v 6.4 h 2.133334 v -6.4 z m -12.8,8.5333 v 2.1333 h 2.133334 v -2.1333 z m 4.266667,0 v 2.1333 h 6.4 v -2.1333 z m 8.533333,0 v 2.1333 h 2.133334 v -2.1333 z"
       id="rect5754-0"
       sodipodi:nodetypes="ccccccccccccccccccccccccccccccccccccccccccccc" />
    <path
       inkscape:connector-curvature="0"
       style="color:#000000;display:inline;overflow:visible;visibility:visible;opacity:1;fill:#ffffff;fill-opacity:1;fill-rule:nonzero;stroke:none;stroke-width:2.68799996;marker:none;enable-background:accumulate"
       d="m 5.3333333,1076.653 v 6.4 h 6.3999997 v -6.4 z m 8.5333337,0 v 6.4 h 6.4 v -6.4 z M 9.6,1085.1863 v 6.4 H 16 v -6.4 z"
       id="rect5754-4"
       sodipodi:nodetypes="ccccccccccccccc" />
    <path
       style="color:#000000;display:inline;overflow:visible;visibility:visible;opacity:1;fill:#ffffff;fill-opacity:1;fill-rule:nonzero;stroke:none;stroke-width:2.68799996;marker:none;enable-background:accumulate"
       d="m 30.933333,1076.653 v 6.4 h 6.4 v -6.4 z m 8.533334,0 v 6.4 h 6.4 v -6.4 z m -8.533334,8.5333 v 6.4 h 6.4 v -6.4 z m 8.533334,0 v 6.4 h 6.4 v -6.4 z"
       id="rect5754-4-1"
       inkscape:connector-curvature="0" />
    <path
       style="color:#000000;display:inline;overflow:visible;visibility:visible;opacity:1;fill:#ffffff;fill-opacity:1;fill-rule:nonzero;stroke:none;stroke-width:2.68799996;marker:none;enable-background:accumulate"
       d="m 56.533333,1076.653 v 6.4 h 6.4 v -6.4 z m 8.533334,0 v 6.4 h 6.4 v -6.4 z m -8.533334,8.5333 v 6.4 h 2.133334 v -6.4 z m 4.266667,0 v 6.4 h 6.4 v -6.4 z m 8.533333,0 v 6.4 h 2.133334 v -6.4 z"
       id="rect5754-4-8"
       inkscape:connector-curvature="0" />
    <path
       style="color:#000000;display:inline;overflow:visible;visibility:visible;opacity:1;fill:#ffffff;fill-opacity:1;fill-rule:nonzero;stroke:none;stroke-width:2.68799996;marker:none;enable-background:accumulate"
       d="m 91.733333,1025.453 v 3.2 h -1.066666 c -4.712832,0 -8.533334,3.8205 -8.533334,8.5333 v 3.2 H 86.4 v -3.2 c 0,-2.3564 1.910251,-4.2666 4.266667,-4.2666 h 1.066666 v 3.2 l 5.333334,-5.3334 z"
       id="path6943"
       inkscape:connector-curvature="0" />
    <path
       style="color:#000000;display:inline;overflow:visible;visibility:visible;fill:#ffffff;fill-opacity:1;fill-rule:nonzero;stroke:none;stroke-width:2.68799996;marker:none;enable-background:accumulate"
       d="m 55.466667,1106.5197 c 0.05079,1.7188 0.954428,3.3375 2.150345,4.5315 1.686217,1.5634 3.898071,2.525 5.295521,4.4064 0.421205,0.5365 0.78282,1.1188 1.087467,1.7287 0.919884,-1.9447 2.56951,-3.4151 4.350277,-4.5643 1.459298,-0.9478 2.86334,-2.1154 3.57971,-3.7445 0.866023,-1.6656 0.850734,-3.891 -0.393663,-5.3654 -1.036341,-1.1554 -2.783375,-1.4767 -4.24449,-1.1171 -1.779526,0.5784 -2.768435,2.3908 -3.279073,4.0768 -0.186126,-0.4576 -0.468516,-1.3321 -0.82575,-1.8857 -0.713013,-1.301 -2.038307,-2.4328 -3.602119,-2.3315 -1.46453,-0.021 -3.030258,0.673 -3.655436,2.0641 -0.331214,0.6819 -0.462272,1.4472 -0.462789,2.201 z"
       id="path5186-4"
       inkscape:connector-curvature="0" />
    <path
       style="color:#000000;display:inline;overflow:visible;visibility:visible;opacity:1;fill:#ffffff;fill-opacity:1;fill-rule:nonzero;stroke:none;stroke-width:2.68799996;marker:none;enable-background:accumulate"
       d="m 85.5,1102.253 -3.2,7.4667 3.2,7.4666 H 87.633333 91.9 94.033333 l 3.2,-7.4666 -3.2,-7.4667 H 91.9 87.633333 Z m 1.233333,2.1333 H 92.8 l 2.3,5.3334 -2.3,5.3333 h -6.066667 l -2.3,-5.3333 z"
       id="rect5536-7-8"
       inkscape:connector-curvature="0" />
    <path
       style="color:#000000;display:inline;overflow:visible;visibility:visible;fill:#ffffff;fill-opacity:1;fill-rule:nonzero;stroke:none;stroke-width:2.68799996;marker:none;enable-background:accumulate"
       d="m 108.8,1028.653 v 13.8667 h 12.8 v -13.8667 h -4.26667 v 1.0667 h 3.2 v 11.7333 h -10.66666 v -11.7333 h 3.2 v -1.0667 z"
       id="rect4617"
       inkscape:connector-curvature="0"
       sodipodi:nodetypes="ccccccccccccc" />
    <path
       style="color:#000000;display:inline;overflow:visible;visibility:visible;fill:#ffffff;fill-opacity:1;fill-rule:nonzero;stroke:none;stroke-width:2.68799996;marker:none;enable-background:accumulate"
       d="m 112,1026.5197 h 2.13333 v 7.4666 h 2.13334 v -7.4666 H 118.4 l -3.2,-3.2 z"
       id="path5245-1"
       inkscape:connector-curvature="0"
       sodipodi:nodetypes="cccccccc" />
  </g>
</svg>
