<?xml version="1.0" encoding="UTF-8" standalone="no"?>
<!-- Created with Inkscape (http://www.inkscape.org/) -->

<svg
   xmlns:dc="http://purl.org/dc/elements/1.1/"
   xmlns:cc="http://creativecommons.org/ns#"
   xmlns:rdf="http://www.w3.org/1999/02/22-rdf-syntax-ns#"
   xmlns:svg="http://www.w3.org/2000/svg"
   xmlns="http://www.w3.org/2000/svg"
   xmlns:inkscape="http://www.inkscape.org/namespaces/inkscape"
   version="1.1"
   width="168"
   height="96"
   id="svg2">
  <defs
     id="defs4" />
  <metadata
     id="metadata7">
    <rdf:RDF>
      <cc:Work
         rdf:about="">
        <dc:format>image/svg+xml</dc:format>
        <dc:type
           rdf:resource="http://purl.org/dc/dcmitype/StillImage" />
        <dc:title></dc:title>
      </cc:Work>
    </rdf:RDF>
  </metadata>
  <g
     transform="translate(0,-956.36218)"
     id="layer1">
    <path
       d="m 13,961.36218 0,2 c -3.313708,0 -6,2.68629 -6,6 l -2,0 0,6 6,0 0,-2 c 3.313708,0 6,-2.68629 6,-6 l 2,0 0,-6 -6,0 z m 0,3 0,3 3,0 c 0,2.76142 -2.238576,5 -5,5 l 0,-3 -3,0 c 0,-2.76142 2.238576,-5 5,-5 z"
       inkscape:connector-curvature="0"
       id="rect4142"
       style="color:#000000;fill:#ffffff;fill-opacity:1;stroke:none;stroke-width:2.51999998;marker:none;visibility:visible;display:inline;overflow:visible;enable-background:accumulate" />
    <path
       d="m 36,964.36218 0,1 3,0 0,3 1,0 0,-3 0,-1 -1,0 -3,0 z m -4,2 0,6 6,0 0,-6 -6,0 z m 1,1 4,0 0,4 -4,0 0,-4 z"
       inkscape:connector-curvature="0"
       id="rect4994"
       style="color:#000000;fill:#ffffff;fill-opacity:1;fill-rule:nonzero;stroke:none;stroke-width:2.51999998;marker:none;visibility:visible;display:inline;overflow:visible;enable-background:accumulate" />
    <path
       d="m 29,1033.3622 0,2 5,5 -5,5 0,2 2,0 5,-5 5,5 2,0 0,-2 -5,-5 5,-5 0,-2 -2,0 -5,5 -5,-5 z"
       inkscape:connector-curvature="0"
       id="path5186"
       style="color:#000000;fill:#ffffff;fill-opacity:1;fill-rule:nonzero;stroke:none;stroke-width:2.51999998;marker:none;visibility:visible;display:inline;overflow:visible;enable-background:accumulate" />
    <path
       d="m 13,1035.3622 0,4 -7,0 0,2 7,0 0,4 5,-5 z"
       inkscape:connector-curvature="0"
       id="path5245"
       style="color:#000000;fill:#ffffff;fill-opacity:1;fill-rule:nonzero;stroke:none;stroke-width:2.51999998;marker:none;visibility:visible;display:inline;overflow:visible;enable-background:accumulate" />
    <path
       d="m 67,8 -6,3 -1,8 7,-3 z"
       inkscape:connector-curvature="0"
       transform="translate(0,956.36218)"
       id="path5272"
       style="color:#000000;fill:#ffffff;fill-opacity:1;fill-rule:nonzero;stroke:none;stroke-width:2.51999998;marker:none;visibility:visible;display:inline;overflow:visible;enable-background:accumulate" />
    <path
       d="m 53,964.36218 7,-3 7,3 -7,2 z"
       inkscape:connector-curvature="0"
       id="path5291"
       style="color:#000000;fill:#ffffff;fill-opacity:1;fill-rule:nonzero;stroke:none;stroke-width:2.51999998;marker:none;visibility:visible;display:inline;overflow:visible;enable-background:accumulate" />
    <path
       d="m 53,972.36218 0,-8 6,3 1,8 z"
       inkscape:connector-curvature="0"
       id="path5270"
       style="color:#000000;fill:#ffffff;fill-opacity:1;fill-rule:nonzero;stroke:none;stroke-width:2.51999998;marker:none;visibility:visible;display:inline;overflow:visible;enable-background:accumulate" />
    <path
       d="m 53,985.36218 0,14 14,0 0,-14 z m 2,2 10,0 0,10 -10,0 z"
       inkscape:connector-curvature="0"
       id="rect5536"
       style="color:#000000;fill:#ffffff;fill-opacity:1;fill-rule:nonzero;stroke:none;stroke-width:2.51999998;marker:none;visibility:visible;display:inline;overflow:visible;enable-background:accumulate" />
    <path
       d="m 77,985.36218 0,14 14,0 0,-14 z m 2,2 4,0 0,4 -4,0 z m 6,0 4,0 0,4 -4,0 z m -6,6 4,0 0,4 -4,0 z m 6,0 4,0 0,4 -4,0 z"
       inkscape:connector-curvature="0"
       id="rect5536-7"
       style="color:#000000;fill:#ffffff;fill-opacity:1;fill-rule:nonzero;stroke:none;stroke-width:2.51999998;marker:none;visibility:visible;display:inline;overflow:visible;enable-background:accumulate" />
    <path
       d="m 78,53 0,14 12,0 0,-11 -3,-3 -9,0 z m 1,5 10,0 0,8 -10,0 0,-8 z"
       inkscape:connector-curvature="0"
       transform="translate(0,956.36218)"
       id="path5688"
       style="color:#000000;fill:#ffffff;fill-opacity:1;fill-rule:nonzero;stroke:none;stroke-width:2.51999998;marker:none;visibility:visible;display:inline;overflow:visible;enable-background:accumulate" />
    <path
       d="m 80.000247,1021.3622 7.999753,0 c 0,0 -0.392979,-2.8906 -1.045991,-3 -1.466211,-0.2458 -0.963891,1.4593 -1.865607,1.058 -0.901716,-0.4013 -0.124404,-2.9551 -1.647965,-3.0281 -1.523585,-0.073 -2.269826,2.5538 -2.269826,3.2105 0,0.6567 -1.190267,-1.026 -1.170364,1.7596 z"
       inkscape:connector-curvature="0"
       id="path5752"
       style="color:#000000;fill:#ffffff;fill-opacity:1;fill-rule:nonzero;stroke:none;stroke-width:2.51999998;marker:none;visibility:visible;display:inline;overflow:visible;enable-background:accumulate" />
    <path
       d="m 29,985.36218 0,2 2,0 0,-2 z m 4,0 0,2 6,0 0,-2 z m 8,0 0,2 2,0 0,-2 z m -12,4 0,6 2,0 0,-6 z m 4,0 0,6 6,0 0,-6 z m 8,0 0,6 2,0 0,-6 z m -12,8 0,2 2,0 0,-2 z m 4,0 0,2 6,0 0,-2 z m 8,0 0,2 2,0 0,-2 z"
       inkscape:connector-curvature="0"
       id="rect5754-0"
       style="color:#000000;fill:#ffffff;fill-opacity:1;fill-rule:nonzero;stroke:none;stroke-width:2.51999998;marker:none;visibility:visible;display:inline;overflow:visible;enable-background:accumulate" />
    <path
       d="m 5,1009.3622 0,6 6,0 0,-6 z m 8,0 0,6 6,0 0,-6 z m -4,8 0,6 6,0 0,-6 z"
       inkscape:connector-curvature="0"
       id="rect5754-4"
       style="color:#000000;fill:#ffffff;fill-opacity:1;fill-rule:nonzero;stroke:none;stroke-width:2.51999998;marker:none;visibility:visible;display:inline;overflow:visible;enable-background:accumulate" />
    <path
       d="m 29,1009.3622 0,6 6,0 0,-6 -6,0 z m 8,0 0,6 6,0 0,-6 -6,0 z m -8,8 0,6 6,0 0,-6 -6,0 z m 8,0 0,6 6,0 0,-6 -6,0 z"
       inkscape:connector-curvature="0"
       id="rect5754-4-1"
       style="color:#000000;fill:#ffffff;fill-opacity:1;fill-rule:nonzero;stroke:none;stroke-width:2.51999998;marker:none;visibility:visible;display:inline;overflow:visible;enable-background:accumulate" />
    <path
       d="m 53,1009.3622 0,6 6,0 0,-6 -6,0 z m 8,0 0,6 6,0 0,-6 -6,0 z m -8,8 0,6 2,0 0,-6 -2,0 z m 4,0 0,6 6,0 0,-6 -6,0 z m 8,0 0,6 2,0 0,-6 -2,0 z"
       inkscape:connector-curvature="0"
       id="rect5754-4-8"
       style="color:#000000;fill:#ffffff;fill-opacity:1;fill-rule:nonzero;stroke:none;stroke-width:2.51999998;marker:none;visibility:visible;display:inline;overflow:visible;enable-background:accumulate" />
    <path
       d="m 86,961.36218 0,3 -1,0 c -4.41828,0 -8,3.58172 -8,8 l 0,3 4,0 0,-3 c 0,-2.20914 1.79086,-4 4,-4 l 1,0 0,3 5,-5 -5,-5 z"
       inkscape:connector-curvature="0"
       id="path6943"
       style="color:#000000;fill:#ffffff;fill-opacity:1;fill-rule:nonzero;stroke:none;stroke-width:2.51999998;marker:none;visibility:visible;display:inline;overflow:visible;enable-background:accumulate" />
    <path
       d="m 52,1037.3622 c 0.04762,1.6114 0.894777,3.1289 2.015949,4.2483 1.580828,1.4657 3.654441,2.3672 4.964551,4.131 0.394879,0.503 0.733893,1.0489 1.0195,1.6207 0.862391,-1.8232 2.408916,-3.2017 4.078385,-4.2791 1.368092,-0.8885 2.684381,-1.9832 3.355978,-3.5104 0.811896,-1.5615 0.797563,-3.6479 -0.369059,-5.0301 -0.97157,-1.0832 -2.609414,-1.3844 -3.97921,-1.0473 -1.668305,0.5423 -2.595407,2.2414 -3.074131,3.822 -0.174493,-0.429 -0.439233,-1.2488 -0.77414,-1.7678 -0.66845,-1.2197 -1.910913,-2.2808 -3.376987,-2.1858 -1.372997,-0.02 -2.840867,0.6309 -3.426971,1.9351 -0.310513,0.6393 -0.43338,1.3567 -0.433865,2.0634 z"
       inkscape:connector-curvature="0"
       id="path5186-4"
       style="color:#000000;fill:#ffffff;fill-opacity:1;fill-rule:nonzero;stroke:none;stroke-width:2.51999998;marker:none;visibility:visible;display:inline;overflow:visible;enable-background:accumulate" />
    <path
       d="m 80.15625,1033.3622 -3,7 3,7 2,0 4,0 2,0 3,-7 -3,-7 -2,0 -4,0 -2,0 z m 1.15625,2 5.6875,0 2.15625,5 -2.15625,5 -5.6875,0 -2.15625,-5 2.15625,-5 z"
       inkscape:connector-curvature="0"
       id="rect5536-7-8"
       style="color:#000000;fill:#ffffff;fill-opacity:1;fill-rule:nonzero;stroke:none;stroke-width:2.51999998;marker:none;visibility:visible;display:inline;overflow:visible;enable-background:accumulate" />
  </g>
</svg>
